 <svg version="1.0" xmlns="http://www.w3.org/2000/svg" width="700.000000pt" height="616.000000pt" viewBox="0 0 700.000000 616.000000" preserveAspectRatio="xMidYMid meet">
<metadata>
Created by potrace 1.12, written by Peter Selinger 2001-2015
</metadata>
<g transform="translate(0.000000,616.000000) scale(0.100000,-0.100000)" fill="#000000" stroke="none">
<path d="M200 6150 c0 -5 -25 -25 -55 -45 -37 -23 -67 -53 -90 -90 -20 -30
-40 -55 -45 -55 -7 0 -10 -820 -10 -2295 0 -2284 0 -2294 20 -2305 11 -6 20
-17 20 -26 0 -26 89 -111 148 -141 l57 -28 1314 -2 c1104 -1 1316 -4 1328 -16
11 -11 12 -37 3 -153 -6 -76 -17 -185 -25 -240 -8 -56 -15 -121 -15 -145 0
-89 -82 -199 -190 -254 -86 -44 -180 -66 -311 -74 -117 -6 -130 -9 -163 -34
-46 -35 -62 -89 -44 -148 7 -26 20 -45 35 -52 12 -5 25 -18 28 -29 6 -17 50
-18 1296 -18 1025 0 1289 3 1289 13 0 6 13 23 30 37 57 47 54 146 -7 195 -35
27 -44 29 -158 36 -229 13 -382 82 -462 207 -30 47 -36 66 -44 150 -5 53 -16
146 -24 207 -18 136 -24 307 -10 312 6 1 602 4 1325 5 l1315 3 52 24 c54 24
153 118 153 145 0 8 9 20 20 26 20 11 20 21 20 2300 l0 2289 -22 24 c-13 14
-38 46 -56 71 -18 25 -51 55 -73 66 -22 12 -42 27 -46 35 -4 13 -426 15 -3304
15 -2123 0 -3299 -3 -3299 -10z m6514 -276 c14 -14 16 -228 16 -2210 0 -2181
0 -2194 -20 -2214 -20 -20 -33 -20 -3210 -20 -3177 0 -3190 0 -3210 20 -20 20
-20 33 -20 2208 0 1964 2 2190 16 2210 l15 22 3199 0 c2894 0 3200 -1 3214
-16z m-2895 -4720 c10 -9 40 -255 51 -412 11 -166 43 -314 75 -352 22 -26 47
-89 40 -99 -10 -17 -962 -15 -968 2 -3 6 10 39 28 72 52 98 73 183 85 360 6
88 15 185 20 215 5 30 12 84 15 120 8 84 13 98 32 102 24 5 617 -2 622 -8z"></path>
<path d="M3456 5732 c-3 -5 -42 -30 -88 -57 -46 -27 -126 -74 -178 -105 -52
-31 -151 -89 -220 -130 -69 -40 -195 -115 -280 -165 -85 -51 -211 -125 -280
-165 -69 -40 -136 -80 -150 -90 -14 -9 -52 -31 -85 -50 -33 -18 -95 -56 -137
-83 -75 -47 -78 -50 -78 -87 0 -76 -131 -71 1546 -70 1044 0 1501 3 1515 11
16 8 19 19 17 46 -3 42 -23 57 -193 158 -55 32 -111 65 -125 74 -14 9 -34 21
-45 27 -30 17 -225 134 -265 159 -19 12 -53 32 -75 45 -22 13 -56 33 -75 45
-19 12 -125 75 -235 140 -280 165 -445 265 -477 286 -27 19 -83 26 -92 11z
m203 -229 c80 -47 184 -109 231 -136 160 -95 335 -198 350 -207 41 -25 177
-104 278 -162 120 -70 176 -113 167 -128 -9 -15 -2362 -13 -2370 1 -10 16 31
55 89 83 28 14 72 38 96 54 40 26 141 86 355 210 111 65 207 122 240 141 179
108 393 230 404 231 7 0 79 -39 160 -87z"></path>
<path d="M2000 4553 c-48 -18 -65 -69 -36 -109 14 -19 43 -19 1504 -22 819 -1
1507 1 1528 6 38 8 39 9 42 54 6 85 139 78 -1540 77 -816 0 -1490 -3 -1498 -6z"></path>
<path d="M4183 4164 l-33 -36 0 -842 0 -842 35 -34 35 -34 35 34 35 34 0 846
0 846 -33 32 c-18 18 -35 32 -37 32 -3 0 -20 -17 -37 -36z"></path>
<path d="M4671 4177 c-5 -13 -16 -29 -25 -36 -14 -12 -16 -95 -16 -855 l1
-841 29 -34 28 -33 35 26 c35 27 35 29 42 119 3 51 5 435 3 855 l-3 764 -33
29 c-39 35 -50 36 -61 6z"></path>
<path d="M2251 4164 c-21 -27 -21 -32 -21 -876 l0 -849 25 -24 c28 -29 63 -32
72 -7 3 9 12 24 20 33 11 14 13 152 11 850 l-3 834 -23 33 c-28 39 -54 41 -81
6z"></path>
<path d="M2733 4166 l-28 -24 -3 -851 c-2 -761 -1 -851 13 -863 9 -7 25 -22
35 -32 19 -18 20 -18 54 10 l35 29 0 848 1 849 -29 29 c-36 35 -42 36 -78 5z"></path>
<path d="M3211 4156 c-21 -33 -21 -40 -22 -874 l0 -840 24 -26 c30 -32 47 -33
81 -1 l26 24 0 851 0 851 -26 24 c-36 34 -58 31 -83 -9z"></path>
<path d="M3707 4178 c-9 -7 -21 -26 -27 -41 -7 -19 -10 -305 -10 -855 0 -807
1 -828 20 -859 27 -45 63 -45 90 0 19 31 20 52 20 860 0 811 0 829 -20 867
-21 42 -43 50 -73 28z"></path>
<path d="M1995 2153 c-49 -12 -59 -71 -19 -108 l27 -25 1489 0 1490 0 29 21
c22 16 29 28 29 55 0 68 96 64 -1547 63 -813 -1 -1487 -3 -1498 -6z"></path>
<path d="M2004 1801 c-49 -9 -70 -65 -40 -107 14 -19 43 -19 1511 -22 823 -1
1511 1 1528 6 29 7 32 12 35 49 6 79 137 73 -1530 76 -816 1 -1493 0 -1504 -2z"></path>
</g>
</svg>